<?xml version="1.0" encoding="UTF-8"?>
<svg version="1.1" xmlns="http://www.w3.org/2000/svg" width="500" height="500">
<path d="M0 0 C165 0 330 0 500 0 C500 165 500 330 500 500 C335 500 170 500 0 500 C0 335 0 170 0 0 Z " fill="#1BCAC4" transform="translate(0,0)"/>
<path d="M0 0 C0.73343628 -0.00261841 1.46687256 -0.00523682 2.22253418 -0.00793457 C14.32702987 -0.01255738 25.53872047 1.10034729 37.25 4.3125 C38.87615234 4.69341797 38.87615234 4.69341797 40.53515625 5.08203125 C57.31074352 9.47615282 73.85316856 18.35909066 87.25 29.3125 C87.85166992 29.79895996 88.45333984 30.28541992 89.07324219 30.78662109 C96.04609935 36.46627117 102.67459181 42.21523294 108.25 49.3125 C109.22453125 50.50939453 109.22453125 50.50939453 110.21875 51.73046875 C115.25 58.00954861 115.25 58.00954861 115.25 60.3125 C116.25675781 60.38726562 117.26351562 60.46203125 118.30078125 60.5390625 C151.49143579 63.45353939 182.10909087 80.55397909 203.9453125 105.46875 C208.05726594 110.54248238 211.70856659 115.83455245 215.25 121.3125 C215.85585938 122.23289062 216.46171875 123.15328125 217.0859375 124.1015625 C224.72799188 136.37726071 230.71769905 151.05164729 233.25 165.3125 C233.55357422 166.96185547 233.55357422 166.96185547 233.86328125 168.64453125 C239.5476231 205.57341878 232.20693507 241.8645065 210.17016602 272.24731445 C205.60845308 278.33334717 200.58646209 283.90055754 195.25 289.3125 C194.41082031 290.16457031 193.57164062 291.01664062 192.70703125 291.89453125 C168.87156999 314.79244033 135.44902211 326.88062345 102.69702148 326.73657227 C69.25967237 325.95430423 36.8996997 314.35379745 12.25 291.3125 C11.55519531 290.3534375 10.86039063 289.394375 10.14453125 288.40625 C5.52962368 282.36953786 2.28700534 280.18731158 -5.19140625 279.16015625 C-10.26107774 278.65086031 -15.33940243 278.31516946 -20.421875 277.9609375 C-52.56915562 275.56769585 -82.11539112 256.14159777 -103.75 233.3125 C-125.67872759 207.56133366 -138.40530827 175.5306357 -138.14111328 141.63916016 C-138.12496423 139.18205696 -138.14110173 136.72658661 -138.16015625 134.26953125 C-138.17287277 124.51565697 -137.22477017 115.78670023 -134.75 106.3125 C-134.43929975 104.93956902 -134.13132599 103.56601285 -133.828125 102.19140625 C-131.51545042 92.92979908 -128.14171842 84.73630672 -123.75 76.3125 C-123.39744141 75.63477539 -123.04488281 74.95705078 -122.68164062 74.25878906 C-118.11821718 65.59636136 -113.26328096 57.6775177 -106.75 50.3125 C-106.0178125 49.47203125 -105.285625 48.6315625 -104.53125 47.765625 C-102.30401039 45.24853913 -100.03740353 42.77491839 -97.75 40.3125 C-97.14929688 39.64605469 -96.54859375 38.97960937 -95.9296875 38.29296875 C-71.22289075 12.03531247 -35.21243792 0.12003122 0 0 Z " fill="#FEFEFE" transform="translate(202.75,88.6875)"/>
<path d="M0 0 C0 0.66 0 1.32 0 2 C-1.30710938 2.61875 -1.30710938 2.61875 -2.640625 3.25 C-34.61452352 18.64266408 -59.77241593 44.54786898 -72.30761719 77.97802734 C-75.31493709 86.7603346 -77.47576481 95.85458883 -79 105 C-61.18 105 -43.36 105 -25 105 C-23.35 99.72 -21.7 94.44 -20 89 C-9.55699465 67.93077867 7.32637586 52.58839766 29.7421875 44.6796875 C48.35967316 39.01760774 69.06198586 40.74400454 86.5 49.3125 C94.33557837 53.51366544 100.88287922 58.5609255 107 65 C107.50789062 65.44085938 108.01578125 65.88171875 108.5390625 66.3359375 C120.84943739 77.40965372 128.41685903 95.70397289 130 112 C131.14576633 136.6108759 131.14576633 136.6108759 127 148 C126.58086242 149.28086812 126.16298845 150.56215012 125.74609375 151.84375 C118.22763377 174.12731478 103.40570737 189.51575311 82.625 199.8125 C63.94657425 207.66561915 44.01397317 208.77498707 25.04541016 201.22167969 C21.29165973 199.62228034 17.62861262 197.86401333 14 196 C14 195.34 14 194.68 14 194 C16.20449611 192.58521965 18.40716792 191.28203001 20.6875 190 C29.34857697 184.97338977 37.70098436 179.384751 44.7421875 172.203125 C47 170 47 170 49 170 C49.2371875 169.43925781 49.474375 168.87851562 49.71875 168.30078125 C51.29086374 165.47768676 53.24861516 163.50656888 55.5 161.1875 C74.81183619 140.43290637 84.75074057 113.62018631 89 86 C70.19 86 51.38 86 32 86 C31.67 88.64 31.34 91.28 31 94 C25.24158175 115.82543346 11.20396623 133.47295344 -8 145 C-26.17085638 155.56610423 -48.83426119 159.54599536 -69.4375 154.4375 C-89.49282642 148.94178696 -107.17992834 135.7233753 -118 118 C-130.26234529 95.95882239 -135.26338399 70.78213653 -128.46142578 46.04101562 C-121.9080974 23.74822951 -108.72511648 5.11441726 -88.03125 -6.23046875 C-58.83462966 -21.5916728 -27.41065634 -18.2737709 0 0 Z " fill="#1CCAC4" transform="translate(253,158)"/>
</svg>
